<svg width="24" height="22" viewBox="0 0 24 22" fill="none" xmlns="http://www.w3.org/2000/svg">
<path d="M21.0497 1.55832H19.3781V0.937694C19.3781 0.738781 19.2991 0.548016 19.1585 0.407364C19.0178 0.266711 18.827 0.187694 18.6281 0.187694C18.4292 0.187694 18.2384 0.266711 18.0978 0.407364C17.9571 0.548016 17.8781 0.738781 17.8781 0.937694V1.55832H12.75V0.937694C12.75 0.738781 12.671 0.548016 12.5303 0.407364C12.3897 0.266711 12.1989 0.187694 12 0.187694C11.8011 0.187694 11.6103 0.266711 11.4697 0.407364C11.329 0.548016 11.25 0.738781 11.25 0.937694V1.55832H6.12187V0.937694C6.12438 0.837656 6.10683 0.738129 6.07028 0.644975C6.03372 0.551821 5.9789 0.466924 5.90903 0.395286C5.83916 0.323647 5.75566 0.266715 5.66345 0.227843C5.57124 0.188971 5.47218 0.168945 5.37211 0.168945C5.27204 0.168945 5.17298 0.188971 5.08077 0.227843C4.98856 0.266715 4.90506 0.323647 4.83519 0.395286C4.76532 0.466924 4.71049 0.551821 4.67394 0.644975C4.63738 0.738129 4.61984 0.837656 4.62234 0.937694V1.55832H2.95078C2.29286 1.55894 1.66205 1.82051 1.19674 2.28564C0.731426 2.75078 0.469619 3.38149 0.46875 4.03941V19.331C0.469494 19.9889 0.731183 20.6197 1.1964 21.0849C1.66163 21.5501 2.29239 21.8118 2.95031 21.8125H21.0492C21.7071 21.8118 22.3379 21.5501 22.8031 21.0849C23.2683 20.6197 23.53 19.9889 23.5308 19.331V4.03941C23.53 3.38149 23.2683 2.75073 22.8031 2.28551C22.3379 1.82028 21.7071 1.55859 21.0492 1.55785L21.0497 1.55832ZM2.95078 3.05832H4.62187V3.67848C4.62187 3.87739 4.70089 4.06815 4.84154 4.20881C4.9822 4.34946 5.17296 4.42848 5.37187 4.42848C5.57079 4.42848 5.76155 4.34946 5.9022 4.20881C6.04286 4.06815 6.12187 3.87739 6.12187 3.67848V3.05832H11.25V3.67848C11.2475 3.77851 11.265 3.87804 11.3016 3.97119C11.3382 4.06435 11.393 4.14925 11.4628 4.22088C11.5327 4.29252 11.6162 4.34945 11.7084 4.38833C11.8006 4.4272 11.8997 4.44722 11.9998 4.44722C12.0998 4.44722 12.1989 4.4272 12.2911 4.38833C12.3833 4.34945 12.4668 4.29252 12.5367 4.22088C12.6066 4.14925 12.6614 4.06435 12.6979 3.97119C12.7345 3.87804 12.752 3.77851 12.7495 3.67848V3.05832H17.8777V3.67848C17.8777 3.87739 17.9567 4.06815 18.0973 4.20881C18.238 4.34946 18.4287 4.42848 18.6277 4.42848C18.8266 4.42848 19.0173 4.34946 19.158 4.20881C19.2986 4.06815 19.3777 3.87739 19.3777 3.67848V3.05832H21.0492C21.5906 3.05832 22.0312 3.49894 22.0312 4.03988V6.56176H1.96875V4.03988C1.96875 3.49848 2.40937 3.05832 2.95078 3.05832ZM21.0497 20.313H2.95078C2.69049 20.3128 2.44092 20.2093 2.25682 20.0253C2.07272 19.8413 1.96912 19.5917 1.96875 19.3314V8.06129H22.0312V19.3314C22.0312 19.8729 21.5911 20.313 21.0497 20.313Z" fill="white"/>
<path d="M7.26484 9.94922H5.06641C4.86749 9.94922 4.67673 10.0282 4.53608 10.1689C4.39542 10.3095 4.31641 10.5003 4.31641 10.6992C4.31641 10.8981 4.39542 11.0889 4.53608 11.2295C4.67673 11.3702 4.86749 11.4492 5.06641 11.4492H7.26484C7.46376 11.4492 7.65452 11.3702 7.79517 11.2295C7.93583 11.0889 8.01484 10.8981 8.01484 10.6992C8.01484 10.5003 7.93583 10.3095 7.79517 10.1689C7.65452 10.0282 7.46376 9.94922 7.26484 9.94922ZM7.26484 13.5141H5.06641C4.86749 13.5141 4.67673 13.5931 4.53608 13.7337C4.39542 13.8744 4.31641 14.0652 4.31641 14.2641C4.31641 14.463 4.39542 14.6537 4.53608 14.7944C4.67673 14.935 4.86749 15.0141 5.06641 15.0141H7.26484C7.46376 15.0141 7.65452 14.935 7.79517 14.7944C7.93583 14.6537 8.01484 14.463 8.01484 14.2641C8.01484 14.0652 7.93583 13.8744 7.79517 13.7337C7.65452 13.5931 7.46376 13.5141 7.26484 13.5141ZM7.26484 17.0794H5.06641C4.86749 17.0794 4.67673 17.1584 4.53608 17.299C4.39542 17.4397 4.31641 17.6305 4.31641 17.8294C4.31641 18.0283 4.39542 18.2191 4.53608 18.3597C4.67673 18.5004 4.86749 18.5794 5.06641 18.5794H7.26484C7.46376 18.5794 7.65452 18.5004 7.79517 18.3597C7.93583 18.2191 8.01484 18.0283 8.01484 17.8294C8.01484 17.6305 7.93583 17.4397 7.79517 17.299C7.65452 17.1584 7.46376 17.0794 7.26484 17.0794ZM13.0605 9.94922H10.862C10.6631 9.94922 10.4724 10.0282 10.3317 10.1689C10.191 10.3095 10.112 10.5003 10.112 10.6992C10.112 10.8981 10.191 11.0889 10.3317 11.2295C10.4724 11.3702 10.6631 11.4492 10.862 11.4492H13.0605C13.2594 11.4492 13.4501 11.3702 13.5908 11.2295C13.7314 11.0889 13.8105 10.8981 13.8105 10.6992C13.8105 10.5003 13.7314 10.3095 13.5908 10.1689C13.4501 10.0282 13.2594 9.94922 13.0605 9.94922ZM13.0605 13.5141H10.862C10.6631 13.5141 10.4724 13.5931 10.3317 13.7337C10.191 13.8744 10.112 14.0652 10.112 14.2641C10.112 14.463 10.191 14.6537 10.3317 14.7944C10.4724 14.935 10.6631 15.0141 10.862 15.0141H13.0605C13.2594 15.0141 13.4501 14.935 13.5908 14.7944C13.7314 14.6537 13.8105 14.463 13.8105 14.2641C13.8105 14.0652 13.7314 13.8744 13.5908 13.7337C13.4501 13.5931 13.2594 13.5141 13.0605 13.5141ZM13.0605 17.0794H10.862C10.6631 17.0794 10.4724 17.1584 10.3317 17.299C10.191 17.4397 10.112 17.6305 10.112 17.8294C10.112 18.0283 10.191 18.2191 10.3317 18.3597C10.4724 18.5004 10.6631 18.5794 10.862 18.5794H13.0605C13.2594 18.5794 13.4501 18.5004 13.5908 18.3597C13.7314 18.2191 13.8105 18.0283 13.8105 17.8294C13.8105 17.6305 13.7314 17.4397 13.5908 17.299C13.4501 17.1584 13.2594 17.0794 13.0605 17.0794ZM18.8566 9.94922H16.6581C16.4592 9.94922 16.2684 10.0282 16.1278 10.1689C15.9871 10.3095 15.9081 10.5003 15.9081 10.6992C15.9081 10.8981 15.9871 11.0889 16.1278 11.2295C16.2684 11.3702 16.4592 11.4492 16.6581 11.4492H18.8566C19.0555 11.4492 19.2462 11.3702 19.3869 11.2295C19.5275 11.0889 19.6066 10.8981 19.6066 10.6992C19.6066 10.5003 19.5275 10.3095 19.3869 10.1689C19.2462 10.0282 19.0555 9.94922 18.8566 9.94922ZM18.8566 13.5141H16.6581C16.4592 13.5141 16.2684 13.5931 16.1278 13.7337C15.9871 13.8744 15.9081 14.0652 15.9081 14.2641C15.9081 14.463 15.9871 14.6537 16.1278 14.7944C16.2684 14.935 16.4592 15.0141 16.6581 15.0141H18.8566C19.0555 15.0141 19.2462 14.935 19.3869 14.7944C19.5275 14.6537 19.6066 14.463 19.6066 14.2641C19.6066 14.0652 19.5275 13.8744 19.3869 13.7337C19.2462 13.5931 19.0555 13.5141 18.8566 13.5141ZM18.8566 17.0794H16.6581C16.4592 17.0794 16.2684 17.1584 16.1278 17.299C15.9871 17.4397 15.9081 17.6305 15.9081 17.8294C15.9081 18.0283 15.9871 18.2191 16.1278 18.3597C16.2684 18.5004 16.4592 18.5794 16.6581 18.5794H18.8566C19.0555 18.5794 19.2462 18.5004 19.3869 18.3597C19.5275 18.2191 19.6066 18.0283 19.6066 17.8294C19.6066 17.6305 19.5275 17.4397 19.3869 17.299C19.2462 17.1584 19.0555 17.0794 18.8566 17.0794Z" fill="white"/>
</svg>
