<svg width="24" height="25" viewBox="0 0 24 25" fill="none" xmlns="http://www.w3.org/2000/svg">
<path d="M21 18.5V15.5C21 15.3011 20.921 15.1103 20.7803 14.9697C20.6397 14.829 20.4489 14.75 20.25 14.75C20.0511 14.75 19.8603 14.829 19.7197 14.9697C19.579 15.1103 19.5 15.3011 19.5 15.5V18.5C19.5 18.6989 19.421 18.8897 19.2803 19.0303C19.1397 19.171 18.9489 19.25 18.75 19.25H5.25C5.05109 19.25 4.86032 19.171 4.71967 19.0303C4.57902 18.8897 4.5 18.6989 4.5 18.5V15.5C4.5 15.3011 4.42098 15.1103 4.28033 14.9697C4.13968 14.829 3.94891 14.75 3.75 14.75C3.55109 14.75 3.36032 14.829 3.21967 14.9697C3.07902 15.1103 3 15.3011 3 15.5V18.5C3 19.0967 3.23705 19.669 3.65901 20.091C4.08097 20.5129 4.65326 20.75 5.25 20.75H18.75C19.3467 20.75 19.919 20.5129 20.341 20.091C20.7629 19.669 21 19.0967 21 18.5ZM16.215 14.585L12.465 17.585C12.3326 17.6896 12.1688 17.7465 12 17.7465C11.8312 17.7465 11.6674 17.6896 11.535 17.585L7.785 14.585C7.64836 14.456 7.56511 14.2805 7.55173 14.093C7.53834 13.9056 7.59578 13.72 7.7127 13.5729C7.82962 13.4258 7.99749 13.328 8.18309 13.2987C8.3687 13.2695 8.55852 13.311 8.715 13.415L11.25 15.44V5C11.25 4.80109 11.329 4.61032 11.4697 4.46967C11.6103 4.32902 11.8011 4.25 12 4.25C12.1989 4.25 12.3897 4.32902 12.5303 4.46967C12.671 4.61032 12.75 4.80109 12.75 5V15.44L15.285 13.415C15.3605 13.3437 15.45 13.2889 15.5478 13.254C15.6457 13.2191 15.7497 13.2049 15.8533 13.2123C15.9569 13.2197 16.0578 13.2485 16.1496 13.297C16.2415 13.3454 16.3223 13.4124 16.3869 13.4937C16.4516 13.575 16.4986 13.6689 16.5251 13.7693C16.5515 13.8697 16.5568 13.9745 16.5407 14.0771C16.5245 14.1797 16.4872 14.2778 16.4312 14.3653C16.3751 14.4527 16.3015 14.5275 16.215 14.585Z" fill="white"/>
</svg>
