<svg width="24" height="18" viewBox="0 0 24 18" fill="none" xmlns="http://www.w3.org/2000/svg">
<path d="M0.780281 16.9777H23.506V17.9658H0.780281V16.9777ZM23.1619 1.41233C21.5114 0.450394 19.636 0.961376 18.3537 1.55936L14.5309 3.34194L7.95626 0.0351562L4.04087 0.203376L9.46999 5.70734L6.01 7.35095L2.41021 5.98094L0 7.10477L2.17816 9.80957C1.94804 10.0841 1.7395 10.4706 1.92882 10.8766C2.17608 11.4068 2.90691 11.6741 4.10569 11.674C4.35152 11.674 4.61707 11.6628 4.90208 11.6403C6.21799 11.5363 7.64467 11.2004 8.53675 10.7845L22.2016 4.41242C23.3819 3.86201 23.9698 3.28409 23.9989 2.6455C24.014 2.3143 23.8811 1.83137 23.1619 1.41233ZM21.7839 3.51688L8.11915 9.88896C7.35912 10.2434 6.11133 10.5403 4.94027 10.6455C3.74331 10.7529 3.10334 10.618 2.89002 10.5034C2.93393 10.4433 3.01594 10.3489 3.16727 10.2157L3.52218 9.90329L1.56046 7.46729L2.44904 7.0529L6.05269 8.42449L11.1496 6.00327L6.30806 1.09491L7.7418 1.03331L14.5145 4.43964L18.7711 2.4548C20.3257 1.7299 21.6355 1.66647 22.6643 2.26593L22.6643 2.26598C22.9235 2.41701 23.0141 2.54876 23.0118 2.60044C23.0117 2.604 22.982 2.95832 21.7839 3.51688Z" fill="white"/>
</svg>
